<svg viewBox="0 0 116 34" fill="none" xmlns="http://www.w3.org/2000/svg">
<path d="M0 0.351807H2.55087V14.794H10.1904V15.7897H0V0.351807Z" fill="black"/>
<path d="M26.7851 0.351807V1.3495H18.7858V6.86993H24.1375V7.86591H18.7858V14.7937H26.7851V15.7893H16.2383V0.351807H26.7851Z" fill="black"/>
<path d="M45.6267 0.351807V1.3495H40.1188V15.7897H37.5747V1.3495H32.0762V0.351807H45.6267Z" fill="black"/>
<path d="M51.8887 0.351807H54.4328V15.7897H51.8887V0.351807Z" fill="black"/>
<path d="M77.9624 20.6279C77.2229 20.6279 76.4838 20.5551 75.7511 20.4164C75.005 20.2777 74.2924 20.0795 73.6064 19.8356C72.9271 19.5916 72.2677 19.3124 71.6414 19.0008C71.0089 18.6776 70.4293 18.3438 69.8898 17.9864C69.3704 17.6359 68.8907 17.275 68.4513 16.9043C68.0313 16.5299 67.6853 16.1762 67.4118 15.8356C66.533 15.6258 65.7472 15.2513 65.0276 14.7214C64.308 14.1945 63.6952 13.5751 63.1758 12.8551C62.6565 12.1369 62.25 11.3596 61.9506 10.5147C61.6573 9.67485 61.5176 8.82784 61.5176 7.98117C61.5176 7.2493 61.6174 6.54169 61.8041 5.86074C61.9909 5.18149 62.2573 4.54837 62.6168 3.95727C62.9763 3.36447 63.3892 2.82428 63.8887 2.33671C64.3748 1.8488 64.9342 1.43401 65.5406 1.09165C66.1665 0.747925 66.8195 0.480394 67.5321 0.287348C68.2514 0.0963521 69.0106 0 69.79 0C70.5694 0 71.3287 0.0963521 72.0412 0.28769C72.7474 0.480736 73.4065 0.748266 74.026 1.09199C74.6455 1.43401 75.1982 1.84914 75.6846 2.33705C76.1909 2.82462 76.6105 3.36481 76.9636 3.95761C77.323 4.54837 77.5965 5.18183 77.7762 5.86108C77.9627 6.54203 78.0625 7.24964 78.0625 7.98151C78.0625 8.57739 77.9963 9.16678 77.8428 9.75616C77.7164 10.3438 77.5102 10.9127 77.2438 11.4615C76.9841 12.0085 76.671 12.5183 76.2846 13.0058C75.9252 13.4917 75.4921 13.9253 75.0393 14.3182C74.5662 14.7125 74.0603 15.0429 73.5275 15.3224C72.9678 15.5985 72.4014 15.7983 71.7822 15.9271C71.9556 16.4386 72.2354 16.9484 72.6214 17.4582C73.0145 17.9748 73.4875 18.4333 74.0401 18.8399C74.5867 19.2462 75.1992 19.5766 75.8586 19.8356C76.5245 20.088 77.2374 20.2203 77.9634 20.2203V20.6279H77.9624ZM69.79 15.3832C70.6494 15.2834 71.4086 15.0429 72.0879 14.6602C72.7474 14.2792 73.3135 13.7695 73.7663 13.136C74.2259 12.506 74.5656 11.756 74.8058 10.8905C75.0453 10.0186 75.1652 9.04787 75.1652 7.98117C75.1652 6.92437 75.0453 5.95401 74.8058 5.06839C74.5656 4.18619 74.233 3.42563 73.7663 2.78567C73.3266 2.14879 72.7672 1.64926 72.0879 1.297C71.4154 0.938237 70.6494 0.763642 69.79 0.763642C68.8977 0.763642 68.1314 0.938237 67.4521 1.297C66.7732 1.64926 66.2132 2.14879 65.7737 2.78567C65.3209 3.42597 64.9745 4.18619 64.7481 5.06839C64.5284 5.95401 64.4152 6.92471 64.4152 7.98117C64.4152 9.04787 64.5284 10.0387 64.7481 10.9448C64.9745 11.8476 65.3209 12.63 65.7737 13.2901C66.2135 13.942 66.7732 14.4586 67.4521 14.8293C68.1314 15.2004 68.8977 15.3832 69.79 15.3832Z" fill="black"/>
<path d="M84.875 0.351807H87.4259V10.3721C87.4259 11.0325 87.5327 11.6458 87.7528 12.2315C87.9792 12.8072 88.2987 13.3153 88.7115 13.7557C89.118 14.1859 89.6243 14.5296 90.1971 14.7834C90.783 15.0376 91.4294 15.1593 92.1487 15.1593C92.8747 15.1593 93.5412 15.0376 94.1136 14.7834C94.6999 14.5292 95.186 14.1855 95.5922 13.7557C96.005 13.3153 96.3114 12.8072 96.5379 12.2315C96.7508 11.6455 96.8577 11.0325 96.8577 10.3721V0.351807H97.9831V10.3721C97.9831 11.1614 97.8565 11.9083 97.6105 12.6042C97.3509 13.3054 96.9642 13.92 96.425 14.4483C95.8922 14.9765 95.1994 15.3899 94.3535 15.6964C93.5143 16.0046 92.5085 16.1553 91.3431 16.1553C90.2905 16.1553 89.3583 16.0046 88.5523 15.6964C87.7464 15.3899 87.0735 14.9751 86.5275 14.4397C85.9883 13.9081 85.5748 13.29 85.2953 12.5786C85.0158 11.8673 84.8757 11.1152 84.8757 10.3195V0.351807H84.875Z" fill="black"/>
<path d="M115.999 0.351807V1.3495H108V6.86993H113.348V7.86591H108V14.7937H115.999V15.7893H105.449V0.351807H115.999Z" fill="black"/>
<path d="M19.079 28.5805C18.4464 28.5805 17.9401 28.7975 17.5739 29.2242C17.2141 29.651 17.0243 30.2403 17.0243 30.9924C17.0243 31.7577 17.2074 32.3505 17.5571 32.767C17.9068 33.1869 18.4128 33.3937 19.0655 33.3937C19.4687 33.3937 19.9313 33.3226 20.4443 33.1733V33.7729C20.0448 33.9219 19.5516 33.9998 18.9657 33.9998C18.1198 33.9998 17.4607 33.7357 17.0008 33.2139C16.5412 32.6925 16.3047 31.947 16.3047 30.9784C16.3047 30.3787 16.4213 29.8471 16.641 29.3899C16.864 28.9396 17.1839 28.5873 17.6068 28.3434C18.0197 28.0929 18.5193 27.9709 19.0853 27.9709C19.6914 27.9709 20.2175 28.0857 20.6704 28.3092L20.3808 28.8989C19.9447 28.6891 19.5117 28.5805 19.079 28.5805Z" fill="black"/>
<path d="M31.5745 30.9786C31.5745 31.9203 31.3481 32.6586 30.8818 33.1937C30.4088 33.7322 29.7628 33.9997 28.9303 33.9997C28.0844 33.9997 27.4316 33.7356 26.9653 33.207C26.5057 32.6788 26.2793 31.9336 26.2793 30.9718C26.2793 30.0165 26.5057 29.2784 26.972 28.7567C27.435 28.2285 28.0911 27.9644 28.937 27.9644C29.7695 27.9644 30.4088 28.2285 30.8818 28.7639C31.3485 29.3058 31.5745 30.037 31.5745 30.9786ZM26.9858 30.9786C26.9858 31.7747 27.1524 32.374 27.4854 32.784C27.8119 33.2005 28.298 33.4035 28.9306 33.4035C29.5699 33.4035 30.0497 33.2002 30.3759 32.7871C30.7088 32.3774 30.8754 31.7778 30.8754 30.9783C30.8754 30.1924 30.7088 29.59 30.3826 29.1831C30.0564 28.7769 29.5703 28.5736 28.9373 28.5736C28.298 28.5736 27.8116 28.7769 27.4854 29.1869C27.1521 29.6003 26.9858 30.1996 26.9858 30.9786Z" fill="black"/>
<path d="M40.9907 32.3568C40.9907 32.8786 40.7976 33.2817 40.4344 33.5694C40.0716 33.8575 39.5653 33.9999 38.9391 33.9999C38.2531 33.9999 37.7202 33.9118 37.3574 33.7324V33.0716C37.5973 33.1734 37.8536 33.2544 38.1301 33.3121C38.4066 33.3733 38.6797 33.4037 38.9559 33.4037C39.402 33.4037 39.7517 33.3156 39.9647 33.1464C40.1945 32.9701 40.3111 32.733 40.3111 32.4252C40.3111 32.2215 40.2711 32.0524 40.1912 31.9273C40.1112 31.7951 39.9748 31.6766 39.7917 31.5645C39.5955 31.4596 39.3157 31.3342 38.926 31.1955C38.3965 30.9956 38.0068 30.7687 37.7804 30.5012C37.554 30.2337 37.4374 29.8814 37.4374 29.4512C37.4374 29.0009 37.5973 28.6384 37.9336 28.3709C38.2732 28.1071 38.713 27.9714 39.2656 27.9714C39.8351 27.9714 40.3544 28.0794 40.8342 28.2899L40.6343 28.8858C40.1545 28.6825 39.6916 28.5806 39.2387 28.5806C38.8857 28.5806 38.6092 28.6555 38.4096 28.8178C38.2097 28.9671 38.1167 29.1834 38.1167 29.4615C38.1167 29.6648 38.1533 29.8339 38.2265 29.9559C38.2998 30.0912 38.4264 30.2063 38.5961 30.3215C38.7657 30.423 39.0358 30.5449 39.3953 30.6737C39.998 30.8941 40.4243 31.1343 40.644 31.3813C40.8742 31.6356 40.9907 31.9608 40.9907 32.3568Z" fill="black"/>
<path d="M49.5874 33.9185L47.6292 28.7195H47.5993C47.6325 29.136 47.6658 29.6236 47.6658 30.1894V33.9185H47.0332V28.0591H48.0521L49.867 32.8955H49.9069L51.7452 28.0591H52.7447V33.9185H52.0752V30.1423C52.0752 29.7121 52.1051 29.2413 52.1417 28.7332H52.105L50.1371 33.9188H49.5874V33.9185Z" fill="black"/>
<path d="M62.4171 33.9185H59.2051V28.0591H62.4171V28.6621H59.8662V30.5485H62.2575V31.1546H59.8662V33.3089H62.4171V33.9185Z" fill="black"/>
<path d="M70.3359 33.9185H69.6701V28.6621H67.8516V28.0591H72.1678V28.6621H70.3363V33.9185H70.3359Z" fill="black"/>
<path d="M77.9023 33.9185V28.0591H78.5682V33.9185H77.9023Z" fill="black"/>
<path d="M87.4936 28.5805C86.8674 28.5805 86.3611 28.7975 85.9949 29.2242C85.6284 29.651 85.4419 30.2403 85.4419 30.9924C85.4419 31.7577 85.6287 32.3505 85.9751 32.767C86.3282 33.1869 86.8344 33.3937 87.4801 33.3937C87.8866 33.3937 88.3459 33.3226 88.8656 33.1733V33.7729C88.4661 33.9219 87.973 33.9998 87.3867 33.9998C86.5344 33.9998 85.875 33.7357 85.4221 33.2139C84.9555 32.6925 84.7227 31.947 84.7227 30.9784C84.7227 30.3787 84.8362 29.8471 85.0626 29.3899C85.2824 28.9396 85.6018 28.5873 86.0282 28.3434C86.441 28.0929 86.9339 27.9709 87.5067 27.9709C88.1063 27.9709 88.6324 28.0857 89.0853 28.3092L88.7984 28.8989C88.366 28.6891 87.9333 28.5805 87.4936 28.5805Z" fill="black"/>
<path d="M98.2491 32.3568C98.2491 32.8786 98.0626 33.2817 97.6964 33.5694C97.3232 33.8575 96.8236 33.9999 96.191 33.9999C95.5118 33.9999 94.9853 33.9118 94.6191 33.7324V33.0716C94.859 33.1734 95.112 33.2544 95.3851 33.3121C95.665 33.3733 95.9445 33.4037 96.2176 33.4037C96.6637 33.4037 97.0037 33.3156 97.2234 33.1464C97.4562 32.9701 97.5698 32.733 97.5698 32.4252C97.5698 32.2215 97.5298 32.0524 97.4498 31.9273C97.3699 31.7951 97.2301 31.6766 97.0437 31.5645C96.8572 31.4596 96.5771 31.3342 96.1843 31.1955C95.6515 30.9956 95.2655 30.7687 95.032 30.5012C94.8053 30.2337 94.6991 29.8814 94.6991 29.4512C94.6991 29.0009 94.859 28.6384 95.1919 28.3709C95.5249 28.1071 95.9713 27.9714 96.5173 27.9714C97.0968 27.9714 97.6161 28.0794 98.0959 28.2899L97.8956 28.8858C97.4159 28.6825 96.9503 28.5806 96.5038 28.5806C96.144 28.5806 95.8642 28.6555 95.6646 28.8178C95.4644 28.9671 95.3713 29.1834 95.3713 29.4615C95.3713 29.6648 95.4049 29.8339 95.4778 29.9559C95.5511 30.0912 95.671 30.2063 95.8575 30.3215C96.0241 30.423 96.2972 30.5449 96.6567 30.6737C97.2563 30.8941 97.6692 31.1343 97.902 31.3813C98.1359 31.6356 98.2491 31.9608 98.2491 32.3568Z" fill="black"/>
</svg>
